<svg xmlns="http://www.w3.org/2000/svg" width="48" height="48" viewBox="0 0 64 64">
  <defs><filter id="s" x="-40%" y="-40%" width="190%" height="190%"><feDropShadow dx="3" dy="4" stdDeviation="3" flood-color="#000" flood-opacity=".28"/></filter></defs>
  <path filter="url(#s)" d="M22.5 7.5a5 5 0 0 1 10 0v19.2-7.5a5 5 0 0 1 10 0v9-5.4a5 5 0 0 1 10 0v9.5-3.8a5 5 0 0 1 10 0v12.7c0 11.1-8.8 20.1-19.7 20.1H34c-7.1 0-13.5-3.8-17-10L7.5 34.8a5.4 5.4 0 0 1 9.2-5.6l5.8 8.6V7.5Z" transform="translate(-3 -2) scale(.95)" fill="#fff" stroke="#050505" stroke-width="5" stroke-linecap="round" stroke-linejoin="round"/>
</svg>
